<svg width="21" height="13" viewBox="0 0 21 13" fill="none" xmlns="http://www.w3.org/2000/svg">
<path d="M20.8062 11.1153C20.8062 11.0323 20.7231 11.0323 20.7231 10.9493C20.3911 10.2851 19.6438 9.45486 18.6476 8.54161C18.1494 8.1265 17.9004 7.7944 17.7343 7.62835C17.4852 7.29626 17.4853 7.0472 17.5683 6.71511C17.6513 6.46604 17.9834 6.05092 18.5645 5.30371C18.8966 4.8886 19.0627 4.63953 19.3117 4.39047C20.5571 2.73001 21.1382 1.6507 20.9722 1.15256L20.8892 1.06955C20.8062 0.986525 20.7231 0.903505 20.5571 0.903505C20.391 0.820482 20.142 0.820482 19.8929 0.903505H16.7381C16.655 0.903505 16.655 0.903505 16.489 0.903505C16.4059 0.903505 16.3229 0.903505 16.3229 0.903505H16.2399H16.1569L16.0739 0.98652C15.9908 1.06954 15.9908 1.06954 15.9908 1.15256C15.6587 2.06582 15.2436 2.81302 14.8285 3.64325C14.5794 4.05837 14.3304 4.47349 14.0813 4.80558C13.8322 5.13767 13.6662 5.38674 13.5001 5.55278C13.3341 5.71883 13.168 5.80185 13.085 5.9679C13.002 6.05092 12.836 6.13395 12.836 6.05092C12.7529 6.05092 12.6699 6.05092 12.6699 5.9679C12.5869 5.88487 12.5039 5.80185 12.4208 5.71882C12.3378 5.6358 12.3378 5.46976 12.2548 5.30371C12.2548 5.13766 12.2548 4.97162 12.2548 4.8886C12.2548 4.80557 12.2548 4.55651 12.2548 4.39047C12.2548 4.1414 12.2548 3.97535 12.2548 3.89232C12.2548 3.64325 12.2548 3.31117 12.2548 2.97908C12.2548 2.64699 12.2548 2.39791 12.2548 2.23186C12.2548 2.06582 12.2548 1.81675 12.2548 1.65071C12.2548 1.40164 12.2548 1.23559 12.2548 1.15256C12.2548 1.06954 12.1718 0.9035 12.1718 0.820477C12.0888 0.737454 12.0057 0.654428 11.9227 0.571405C11.8397 0.488383 11.6736 0.488385 11.5906 0.405362C11.1755 0.322339 10.6774 0.239319 10.0962 0.239319C8.76785 0.239319 7.85459 0.322344 7.5225 0.48839C7.35646 0.571413 7.19041 0.654431 7.10739 0.820477C6.94134 0.986523 6.94134 1.06955 7.02436 1.06955C7.43947 1.15257 7.77157 1.31861 7.93762 1.56768L8.02064 1.73373C8.10367 1.81676 8.10365 1.9828 8.18667 2.23186C8.2697 2.48093 8.2697 2.73 8.2697 3.06209C8.2697 3.56023 8.2697 4.05837 8.2697 4.39047C8.2697 4.80558 8.18667 5.05464 8.18667 5.30371C8.18667 5.55278 8.10367 5.71883 8.02064 5.80185C7.93762 5.9679 7.93761 6.05092 7.85459 6.05092C7.85459 6.05092 7.85458 6.13394 7.77156 6.13394C7.68854 6.13394 7.60552 6.21697 7.43947 6.21697C7.35645 6.21697 7.19041 6.13395 7.10739 6.05092C6.94134 5.9679 6.7753 5.80186 6.69227 5.63581C6.52623 5.46976 6.36018 5.22069 6.19413 4.8886C6.02808 4.5565 5.779 4.22442 5.61296 3.72628L5.44693 3.39419C5.36391 3.22815 5.19786 2.89605 5.03181 2.48094C4.86577 2.06582 4.69972 1.73373 4.53367 1.31862C4.45065 1.15257 4.36764 1.06954 4.28461 0.98652H4.20158C4.20158 0.98652 4.11855 0.903505 4.03553 0.903505C3.95251 0.903505 3.86949 0.820477 3.78647 0.820477H0.797639C0.465548 0.820477 0.299504 0.903497 0.216481 0.98652L0.133453 1.06955C0.133453 1.06955 0.133453 1.15257 0.133453 1.23559C0.133453 1.31861 0.133458 1.40163 0.216481 1.56768C0.631596 2.56395 1.12973 3.56023 1.62787 4.55651C2.12601 5.46976 2.62415 6.29999 2.95624 6.88115C3.37136 7.46231 3.70344 8.04347 4.11856 8.54161C4.53367 9.03975 4.78273 9.37184 4.86576 9.53788C5.0318 9.70393 5.11482 9.78695 5.19784 9.86997L5.44693 10.119C5.61297 10.2851 5.86204 10.5342 6.19413 10.7832C6.52622 11.0323 6.94133 11.2814 7.35645 11.5304C7.77156 11.7795 8.26971 11.9456 8.76785 12.1116C9.34901 12.2776 9.84714 12.3607 10.3453 12.2776H11.5906C11.8397 12.2776 12.0057 12.1946 12.1718 12.0286L12.2548 11.9455C12.2548 11.8625 12.3378 11.8625 12.3378 11.7795C12.3378 11.6965 12.3378 11.6135 12.3378 11.4474C12.3378 11.1153 12.3378 10.8663 12.4208 10.6172C12.5039 10.3681 12.5039 10.2021 12.5869 10.036C12.6699 9.86998 12.7529 9.78695 12.836 9.70393C12.919 9.6209 13.002 9.53788 13.002 9.53788H13.085C13.2511 9.45486 13.5001 9.53788 13.6662 9.70393C13.9153 9.86997 14.1643 10.119 14.3304 10.3681C14.4964 10.6172 14.7455 10.8663 15.0776 11.1983C15.4097 11.5304 15.6587 11.7795 15.8248 11.8625L16.0739 12.0286C16.2399 12.1116 16.406 12.1946 16.655 12.2776C16.9041 12.3607 17.0701 12.3607 17.2362 12.3607L20.059 12.2776C20.308 12.2776 20.5571 12.1946 20.7231 12.1116C20.8892 12.0286 20.9722 11.9455 20.9722 11.7795C20.9722 11.6965 20.9722 11.5304 20.9722 11.4474C20.8062 11.2814 20.8062 11.1983 20.8062 11.1153Z" fill="black"/>
</svg>
